<svg width="223" height="269" viewBox="0 0 223 269" fill="none" xmlns="http://www.w3.org/2000/svg">
<path d="M31 19H188.5L201 135.5L213 247L218 251.5L210.5 254L200 256.5L181.25 258.25L162.5 260H149.625H136.75H123.875H111L102.188 259.688L93.375 259.375L84.5625 259.062L75.75 258.75L66.9375 258.438L58.125 258.125L40.5 257.5L17 254.5L10.5 253L5 250.5L10.5 247.5L11.5 245.5L31 19Z" fill="#D52222"/>
<line x1="10.5818" y1="247.909" x2="31.5818" y2="17.9091" stroke="black" stroke-width="2"/>
<line x1="188.572" y1="16.896" x2="212.716" y2="247.881" stroke="black" stroke-width="2"/>
<g filter="url(#filter0_i_154_305)">
<ellipse cx="110.078" cy="18" rx="79.5" ry="18" fill="white"/>
</g>
<path d="M188.578 18C188.578 18.9229 188.169 19.9077 187.221 20.9571C186.267 22.0123 184.813 23.0782 182.858 24.1248C178.949 26.2172 173.227 28.1325 166.072 29.7526C151.777 32.9892 131.979 35 110.078 35C88.1758 35 68.3784 32.9892 54.0835 29.7526C46.9279 28.1325 41.2059 26.2172 37.2971 24.1248C35.3419 23.0782 33.8884 22.0123 32.9347 20.9571C31.9863 19.9077 31.5776 18.9229 31.5776 18C31.5776 17.0771 31.9863 16.0923 32.9347 15.0429C33.8884 13.9877 35.3419 12.9218 37.2971 11.8752C41.2059 9.78281 46.9279 7.86751 54.0835 6.24739C68.3784 3.0108 88.1758 1 110.078 1C131.979 1 151.777 3.0108 166.072 6.24739C173.227 7.86751 178.949 9.78281 182.858 11.8752C184.813 12.9218 186.267 13.9877 187.221 15.0429C188.169 16.0923 188.578 17.0771 188.578 18Z" stroke="black" stroke-width="2"/>
<g filter="url(#filter1_d_154_305)">
<path d="M11.6158 247C-40.6891 263.35 261.078 265 212.353 247" stroke="black" stroke-width="2"/>
</g>
<g filter="url(#filter2_d_154_305)">
<path d="M11.5776 232C41.7554 245.289 202.578 241 211.578 232" stroke="black" stroke-width="2"/>
</g>
<g filter="url(#filter3_d_154_305)">
<path d="M13.5776 219C43.1518 231.605 200.758 227.537 209.578 219" stroke="black" stroke-width="2"/>
</g>
<defs>
<filter id="filter0_i_154_305" x="30.5776" y="0" width="159" height="40" filterUnits="userSpaceOnUse" color-interpolation-filters="sRGB">
<feFlood flood-opacity="0" result="BackgroundImageFix"/>
<feBlend mode="normal" in="SourceGraphic" in2="BackgroundImageFix" result="shape"/>
<feColorMatrix in="SourceAlpha" type="matrix" values="0 0 0 0 0 0 0 0 0 0 0 0 0 0 0 0 0 0 127 0" result="hardAlpha"/>
<feMorphology radius="3" operator="erode" in="SourceAlpha" result="effect1_innerShadow_154_305"/>
<feOffset dy="4"/>
<feGaussianBlur stdDeviation="1.25"/>
<feComposite in2="hardAlpha" operator="arithmetic" k2="-1" k3="1"/>
<feColorMatrix type="matrix" values="0 0 0 0 0 0 0 0 0 0 0 0 0 0 0 0 0 0 0.25 0"/>
<feBlend mode="normal" in2="shape" result="effect1_innerShadow_154_305"/>
</filter>
<filter id="filter1_d_154_305" x="0.499969" y="246.046" width="222.199" height="22.843" filterUnits="userSpaceOnUse" color-interpolation-filters="sRGB">
<feFlood flood-opacity="0" result="BackgroundImageFix"/>
<feColorMatrix in="SourceAlpha" type="matrix" values="0 0 0 0 0 0 0 0 0 0 0 0 0 0 0 0 0 0 127 0" result="hardAlpha"/>
<feOffset dy="4"/>
<feGaussianBlur stdDeviation="2"/>
<feComposite in2="hardAlpha" operator="out"/>
<feColorMatrix type="matrix" values="0 0 0 0 0 0 0 0 0 0 0 0 0 0 0 0 0 0 0.25 0"/>
<feBlend mode="normal" in2="BackgroundImageFix" result="effect1_dropShadow_154_305"/>
<feBlend mode="normal" in="SourceGraphic" in2="effect1_dropShadow_154_305" result="shape"/>
</filter>
<filter id="filter2_d_154_305" x="5.67462" y="227.585" width="212.11" height="21.3495" filterUnits="userSpaceOnUse" color-interpolation-filters="sRGB">
<feFlood flood-opacity="0" result="BackgroundImageFix"/>
<feColorMatrix in="SourceAlpha" type="matrix" values="0 0 0 0 0 0 0 0 0 0 0 0 0 0 0 0 0 0 127 0" result="hardAlpha"/>
<feOffset dy="2"/>
<feGaussianBlur stdDeviation="2.75"/>
<feComposite in2="hardAlpha" operator="out"/>
<feColorMatrix type="matrix" values="0 0 0 0 0 0 0 0 0 0 0 0 0 0 0 0 0 0 1 0"/>
<feBlend mode="normal" in2="BackgroundImageFix" result="effect1_dropShadow_154_305"/>
<feBlend mode="normal" in="SourceGraphic" in2="effect1_dropShadow_154_305" result="shape"/>
</filter>
<filter id="filter3_d_154_305" x="7.68555" y="214.58" width="208.088" height="20.9199" filterUnits="userSpaceOnUse" color-interpolation-filters="sRGB">
<feFlood flood-opacity="0" result="BackgroundImageFix"/>
<feColorMatrix in="SourceAlpha" type="matrix" values="0 0 0 0 0 0 0 0 0 0 0 0 0 0 0 0 0 0 127 0" result="hardAlpha"/>
<feOffset dy="2"/>
<feGaussianBlur stdDeviation="2.75"/>
<feComposite in2="hardAlpha" operator="out"/>
<feColorMatrix type="matrix" values="0 0 0 0 0 0 0 0 0 0 0 0 0 0 0 0 0 0 1 0"/>
<feBlend mode="normal" in2="BackgroundImageFix" result="effect1_dropShadow_154_305"/>
<feBlend mode="normal" in="SourceGraphic" in2="effect1_dropShadow_154_305" result="shape"/>
</filter>
</defs>
</svg>
