<svg width="755" height="711" viewBox="0 0 755 711" fill="none" xmlns="http://www.w3.org/2000/svg">
<path d="M135.432 678.881L33.5703 558.755L114.342 473.875L191.623 392.611L191.822 385.888L198.579 389.991L207.277 396.383L220.738 409.552L234.199 422.721L242.526 432.541L250.852 442.36L259.179 452.18L267.506 462L272.967 468.924L278.428 475.847L283.889 482.771L289.35 489.694L294.811 496.618L300.272 503.541L311.194 517.388L324.105 537.252L327.164 543.18L328.815 548.992L322.969 546.737L320.797 547.268L135.432 678.881Z" fill="#D52222"/>
<line x1="323.229" y1="546.41" x2="134.224" y2="679.143" stroke="black" stroke-width="2"/>
<line x1="31.9189" y1="560.06" x2="192.479" y2="392.258" stroke="black" stroke-width="2"/>
<g filter="url(#filter0_i_157_376)">
<ellipse cx="83.5265" cy="619.215" rx="79.5" ry="18" transform="rotate(-130.296 83.5265 619.215)" fill="white"/>
</g>
<path d="M32.7574 559.342C33.4614 558.745 34.4767 558.42 35.8905 558.465C37.3121 558.51 39.0651 558.929 41.1278 559.743C45.2517 561.371 50.4132 564.497 56.2767 568.907C67.9903 577.716 82.3278 591.516 96.4926 608.22C110.657 624.925 121.927 641.325 128.704 654.321C132.096 660.827 134.336 666.43 135.268 670.764C135.734 672.932 135.861 674.73 135.673 676.14C135.486 677.542 134.999 678.491 134.296 679.088C133.592 679.685 132.576 680.01 131.162 679.965C129.741 679.92 127.988 679.501 125.925 678.687C121.801 677.058 116.64 673.933 110.776 669.523C99.0626 660.713 84.7252 646.914 70.5604 630.209C56.3956 613.505 45.1255 597.105 38.349 584.108C34.9569 577.603 32.717 572 31.785 567.666C31.3187 565.497 31.1916 563.699 31.3796 562.29C31.5666 560.888 32.0535 559.939 32.7574 559.342Z" stroke="black" stroke-width="2"/>
<g filter="url(#filter1_d_157_376)">
<path d="M321.866 546.209C368.164 575.529 174.258 344.301 192.041 393.105" stroke="black" stroke-width="2"/>
</g>
<g filter="url(#filter2_d_157_376)">
<path d="M310.45 555.94C301.069 524.328 193.788 404.441 181.102 403.397" stroke="black" stroke-width="2"/>
</g>
<g filter="url(#filter3_d_157_376)">
<path d="M299.242 562.822C289.729 532.113 184.696 414.537 172.481 413.33" stroke="black" stroke-width="2"/>
</g>
<path d="M618.629 678.491L720.49 558.364L639.719 473.485L562.437 392.221L562.239 385.497L555.481 389.601L546.784 395.992L533.323 409.161L519.862 422.33L511.535 432.15L503.208 441.97L494.881 451.79L486.554 461.61L481.093 468.534L475.632 475.457L470.171 482.381L464.71 489.304L459.249 496.228L453.788 503.151L442.866 516.998L429.956 536.862L426.896 542.79L425.246 548.601L431.091 546.347L433.263 546.877L618.629 678.491Z" fill="#D52222"/>
<line y1="-1" x2="230.957" y2="-1" transform="matrix(0.818357 0.57471 0.57471 -0.818357 431.407 545.201)" stroke="black" stroke-width="2"/>
<line y1="-1" x2="232.244" y2="-1" transform="matrix(-0.691344 -0.722525 -0.722525 0.691344 721.419 560.361)" stroke="black" stroke-width="2"/>
<g filter="url(#filter4_i_157_376)">
<ellipse cx="79.5" cy="18" rx="79.5" ry="18" transform="matrix(0.64674 -0.762711 -0.762711 -0.64674 632.847 691.101)" fill="white"/>
</g>
<path d="M721.303 558.952C720.599 558.355 719.584 558.03 718.17 558.074C716.748 558.119 714.995 558.539 712.933 559.353C708.809 560.981 703.647 564.107 697.784 568.516C686.07 577.326 671.733 591.125 657.568 607.83C643.403 624.535 632.133 640.935 625.356 653.931C621.964 660.436 619.725 666.039 618.792 670.374C618.326 672.542 618.199 674.34 618.387 675.75C618.574 677.152 619.061 678.101 619.765 678.697C620.469 679.294 621.484 679.62 622.898 679.575C624.32 679.53 626.073 679.111 628.135 678.296C632.259 676.668 637.421 673.543 643.284 669.133C654.998 660.323 669.335 646.524 683.5 629.819C697.665 613.114 708.935 596.714 715.711 583.718C719.104 577.213 721.343 571.61 722.275 567.275C722.742 565.107 722.869 563.309 722.681 561.899C722.494 560.497 722.007 559.549 721.303 558.952Z" stroke="black" stroke-width="2"/>
<g filter="url(#filter5_d_157_376)">
<path d="M432.194 545.819C385.896 575.139 579.802 343.91 562.019 392.714" stroke="black" stroke-width="2"/>
</g>
<g filter="url(#filter6_d_157_376)">
<path d="M443.61 555.549C452.991 523.938 560.273 404.051 572.958 403.007" stroke="black" stroke-width="2"/>
</g>
<g filter="url(#filter7_d_157_376)">
<path d="M454.819 562.432C464.332 531.723 569.365 414.146 581.58 412.94" stroke="black" stroke-width="2"/>
</g>
<path d="M296 19H453.5L466 135.5L478 247L483 251.5L475.5 254L465 256.5L446.25 258.25L427.5 260H414.625H401.75H388.875H376L367.188 259.688L358.375 259.375L349.562 259.062L340.75 258.75L331.938 258.438L323.125 258.125L305.5 257.5L282 254.5L275.5 253L270 250.5L275.5 247.5L276.5 245.5L296 19Z" fill="#D52222"/>
<line x1="275.582" y1="247.909" x2="296.582" y2="17.9091" stroke="black" stroke-width="2"/>
<line x1="453.572" y1="16.896" x2="477.716" y2="247.881" stroke="black" stroke-width="2"/>
<g filter="url(#filter8_i_157_376)">
<ellipse cx="375.078" cy="18" rx="79.5" ry="18" fill="white"/>
</g>
<path d="M453.578 18C453.578 18.9229 453.169 19.9077 452.221 20.9571C451.267 22.0123 449.813 23.0782 447.858 24.1248C443.949 26.2172 438.227 28.1325 431.072 29.7526C416.777 32.9892 396.979 35 375.078 35C353.176 35 333.378 32.9892 319.083 29.7526C311.928 28.1325 306.206 26.2172 302.297 24.1248C300.342 23.0782 298.888 22.0123 297.935 20.9571C296.986 19.9077 296.578 18.9229 296.578 18C296.578 17.0771 296.986 16.0923 297.935 15.0429C298.888 13.9877 300.342 12.9218 302.297 11.8752C306.206 9.78281 311.928 7.86751 319.083 6.24739C333.378 3.0108 353.176 1 375.078 1C396.979 1 416.777 3.0108 431.072 6.24739C438.227 7.86751 443.949 9.78281 447.858 11.8752C449.813 12.9218 451.267 13.9877 452.221 15.0429C453.169 16.0923 453.578 17.0771 453.578 18Z" stroke="black" stroke-width="2"/>
<g filter="url(#filter9_d_157_376)">
<path d="M276.616 247C224.311 263.35 526.078 265 477.353 247" stroke="black" stroke-width="2"/>
</g>
<g filter="url(#filter10_d_157_376)">
<path d="M276.578 232C306.755 245.289 467.578 241 476.578 232" stroke="black" stroke-width="2"/>
</g>
<g filter="url(#filter11_d_157_376)">
<path d="M278.578 219C308.152 231.605 465.758 227.537 474.578 219" stroke="black" stroke-width="2"/>
</g>
<g filter="url(#filter12_di_157_376)">
<circle cx="378" cy="380" r="29" fill="#532CA5"/>
<circle cx="378" cy="380" r="28.5" stroke="black"/>
</g>
<defs>
<filter id="filter0_i_157_376" x="30.2961" y="557.461" width="106.461" height="127.509" filterUnits="userSpaceOnUse" color-interpolation-filters="sRGB">
<feFlood flood-opacity="0" result="BackgroundImageFix"/>
<feBlend mode="normal" in="SourceGraphic" in2="BackgroundImageFix" result="shape"/>
<feColorMatrix in="SourceAlpha" type="matrix" values="0 0 0 0 0 0 0 0 0 0 0 0 0 0 0 0 0 0 127 0" result="hardAlpha"/>
<feMorphology radius="3" operator="erode" in="SourceAlpha" result="effect1_innerShadow_157_376"/>
<feOffset dy="4"/>
<feGaussianBlur stdDeviation="1.25"/>
<feComposite in2="hardAlpha" operator="arithmetic" k2="-1" k3="1"/>
<feColorMatrix type="matrix" values="0 0 0 0 0 0 0 0 0 0 0 0 0 0 0 0 0 0 0.25 0"/>
<feBlend mode="normal" in2="shape" result="effect1_innerShadow_157_376"/>
</filter>
<filter id="filter1_d_157_376" x="185.885" y="385.313" width="148.146" height="172.477" filterUnits="userSpaceOnUse" color-interpolation-filters="sRGB">
<feFlood flood-opacity="0" result="BackgroundImageFix"/>
<feColorMatrix in="SourceAlpha" type="matrix" values="0 0 0 0 0 0 0 0 0 0 0 0 0 0 0 0 0 0 127 0" result="hardAlpha"/>
<feOffset dy="4"/>
<feGaussianBlur stdDeviation="2"/>
<feComposite in2="hardAlpha" operator="out"/>
<feColorMatrix type="matrix" values="0 0 0 0 0 0 0 0 0 0 0 0 0 0 0 0 0 0 0.25 0"/>
<feBlend mode="normal" in2="BackgroundImageFix" result="effect1_dropShadow_157_376"/>
<feBlend mode="normal" in="SourceGraphic" in2="effect1_dropShadow_157_376" result="shape"/>
</filter>
<filter id="filter2_d_157_376" x="175.521" y="398.901" width="141.389" height="164.823" filterUnits="userSpaceOnUse" color-interpolation-filters="sRGB">
<feFlood flood-opacity="0" result="BackgroundImageFix"/>
<feColorMatrix in="SourceAlpha" type="matrix" values="0 0 0 0 0 0 0 0 0 0 0 0 0 0 0 0 0 0 127 0" result="hardAlpha"/>
<feOffset dy="2"/>
<feGaussianBlur stdDeviation="2.75"/>
<feComposite in2="hardAlpha" operator="out"/>
<feColorMatrix type="matrix" values="0 0 0 0 0 0 0 0 0 0 0 0 0 0 0 0 0 0 1 0"/>
<feBlend mode="normal" in2="BackgroundImageFix" result="effect1_dropShadow_157_376"/>
<feBlend mode="normal" in="SourceGraphic" in2="effect1_dropShadow_157_376" result="shape"/>
</filter>
<filter id="filter3_d_157_376" x="166.882" y="408.835" width="138.814" height="161.782" filterUnits="userSpaceOnUse" color-interpolation-filters="sRGB">
<feFlood flood-opacity="0" result="BackgroundImageFix"/>
<feColorMatrix in="SourceAlpha" type="matrix" values="0 0 0 0 0 0 0 0 0 0 0 0 0 0 0 0 0 0 127 0" result="hardAlpha"/>
<feOffset dy="2"/>
<feGaussianBlur stdDeviation="2.75"/>
<feComposite in2="hardAlpha" operator="out"/>
<feColorMatrix type="matrix" values="0 0 0 0 0 0 0 0 0 0 0 0 0 0 0 0 0 0 1 0"/>
<feBlend mode="normal" in2="BackgroundImageFix" result="effect1_dropShadow_157_376"/>
<feBlend mode="normal" in="SourceGraphic" in2="effect1_dropShadow_157_376" result="shape"/>
</filter>
<filter id="filter4_i_157_376" x="617.304" y="557.07" width="106.461" height="127.509" filterUnits="userSpaceOnUse" color-interpolation-filters="sRGB">
<feFlood flood-opacity="0" result="BackgroundImageFix"/>
<feBlend mode="normal" in="SourceGraphic" in2="BackgroundImageFix" result="shape"/>
<feColorMatrix in="SourceAlpha" type="matrix" values="0 0 0 0 0 0 0 0 0 0 0 0 0 0 0 0 0 0 127 0" result="hardAlpha"/>
<feMorphology radius="3" operator="erode" in="SourceAlpha" result="effect1_innerShadow_157_376"/>
<feOffset dy="4"/>
<feGaussianBlur stdDeviation="1.25"/>
<feComposite in2="hardAlpha" operator="arithmetic" k2="-1" k3="1"/>
<feColorMatrix type="matrix" values="0 0 0 0 0 0 0 0 0 0 0 0 0 0 0 0 0 0 0.25 0"/>
<feBlend mode="normal" in2="shape" result="effect1_innerShadow_157_376"/>
</filter>
<filter id="filter5_d_157_376" x="420.029" y="384.923" width="148.146" height="172.477" filterUnits="userSpaceOnUse" color-interpolation-filters="sRGB">
<feFlood flood-opacity="0" result="BackgroundImageFix"/>
<feColorMatrix in="SourceAlpha" type="matrix" values="0 0 0 0 0 0 0 0 0 0 0 0 0 0 0 0 0 0 127 0" result="hardAlpha"/>
<feOffset dy="4"/>
<feGaussianBlur stdDeviation="2"/>
<feComposite in2="hardAlpha" operator="out"/>
<feColorMatrix type="matrix" values="0 0 0 0 0 0 0 0 0 0 0 0 0 0 0 0 0 0 0.25 0"/>
<feBlend mode="normal" in2="BackgroundImageFix" result="effect1_dropShadow_157_376"/>
<feBlend mode="normal" in="SourceGraphic" in2="effect1_dropShadow_157_376" result="shape"/>
</filter>
<filter id="filter6_d_157_376" x="437.151" y="398.51" width="141.389" height="164.823" filterUnits="userSpaceOnUse" color-interpolation-filters="sRGB">
<feFlood flood-opacity="0" result="BackgroundImageFix"/>
<feColorMatrix in="SourceAlpha" type="matrix" values="0 0 0 0 0 0 0 0 0 0 0 0 0 0 0 0 0 0 127 0" result="hardAlpha"/>
<feOffset dy="2"/>
<feGaussianBlur stdDeviation="2.75"/>
<feComposite in2="hardAlpha" operator="out"/>
<feColorMatrix type="matrix" values="0 0 0 0 0 0 0 0 0 0 0 0 0 0 0 0 0 0 1 0"/>
<feBlend mode="normal" in2="BackgroundImageFix" result="effect1_dropShadow_157_376"/>
<feBlend mode="normal" in="SourceGraphic" in2="effect1_dropShadow_157_376" result="shape"/>
</filter>
<filter id="filter7_d_157_376" x="448.363" y="408.445" width="138.815" height="161.782" filterUnits="userSpaceOnUse" color-interpolation-filters="sRGB">
<feFlood flood-opacity="0" result="BackgroundImageFix"/>
<feColorMatrix in="SourceAlpha" type="matrix" values="0 0 0 0 0 0 0 0 0 0 0 0 0 0 0 0 0 0 127 0" result="hardAlpha"/>
<feOffset dy="2"/>
<feGaussianBlur stdDeviation="2.75"/>
<feComposite in2="hardAlpha" operator="out"/>
<feColorMatrix type="matrix" values="0 0 0 0 0 0 0 0 0 0 0 0 0 0 0 0 0 0 1 0"/>
<feBlend mode="normal" in2="BackgroundImageFix" result="effect1_dropShadow_157_376"/>
<feBlend mode="normal" in="SourceGraphic" in2="effect1_dropShadow_157_376" result="shape"/>
</filter>
<filter id="filter8_i_157_376" x="295.578" y="0" width="159" height="40" filterUnits="userSpaceOnUse" color-interpolation-filters="sRGB">
<feFlood flood-opacity="0" result="BackgroundImageFix"/>
<feBlend mode="normal" in="SourceGraphic" in2="BackgroundImageFix" result="shape"/>
<feColorMatrix in="SourceAlpha" type="matrix" values="0 0 0 0 0 0 0 0 0 0 0 0 0 0 0 0 0 0 127 0" result="hardAlpha"/>
<feMorphology radius="3" operator="erode" in="SourceAlpha" result="effect1_innerShadow_157_376"/>
<feOffset dy="4"/>
<feGaussianBlur stdDeviation="1.25"/>
<feComposite in2="hardAlpha" operator="arithmetic" k2="-1" k3="1"/>
<feColorMatrix type="matrix" values="0 0 0 0 0 0 0 0 0 0 0 0 0 0 0 0 0 0 0.25 0"/>
<feBlend mode="normal" in2="shape" result="effect1_innerShadow_157_376"/>
</filter>
<filter id="filter9_d_157_376" x="265.5" y="246.046" width="222.199" height="22.843" filterUnits="userSpaceOnUse" color-interpolation-filters="sRGB">
<feFlood flood-opacity="0" result="BackgroundImageFix"/>
<feColorMatrix in="SourceAlpha" type="matrix" values="0 0 0 0 0 0 0 0 0 0 0 0 0 0 0 0 0 0 127 0" result="hardAlpha"/>
<feOffset dy="4"/>
<feGaussianBlur stdDeviation="2"/>
<feComposite in2="hardAlpha" operator="out"/>
<feColorMatrix type="matrix" values="0 0 0 0 0 0 0 0 0 0 0 0 0 0 0 0 0 0 0.25 0"/>
<feBlend mode="normal" in2="BackgroundImageFix" result="effect1_dropShadow_157_376"/>
<feBlend mode="normal" in="SourceGraphic" in2="effect1_dropShadow_157_376" result="shape"/>
</filter>
<filter id="filter10_d_157_376" x="270.675" y="227.585" width="212.11" height="21.3495" filterUnits="userSpaceOnUse" color-interpolation-filters="sRGB">
<feFlood flood-opacity="0" result="BackgroundImageFix"/>
<feColorMatrix in="SourceAlpha" type="matrix" values="0 0 0 0 0 0 0 0 0 0 0 0 0 0 0 0 0 0 127 0" result="hardAlpha"/>
<feOffset dy="2"/>
<feGaussianBlur stdDeviation="2.75"/>
<feComposite in2="hardAlpha" operator="out"/>
<feColorMatrix type="matrix" values="0 0 0 0 0 0 0 0 0 0 0 0 0 0 0 0 0 0 1 0"/>
<feBlend mode="normal" in2="BackgroundImageFix" result="effect1_dropShadow_157_376"/>
<feBlend mode="normal" in="SourceGraphic" in2="effect1_dropShadow_157_376" result="shape"/>
</filter>
<filter id="filter11_d_157_376" x="272.686" y="214.58" width="208.088" height="20.9199" filterUnits="userSpaceOnUse" color-interpolation-filters="sRGB">
<feFlood flood-opacity="0" result="BackgroundImageFix"/>
<feColorMatrix in="SourceAlpha" type="matrix" values="0 0 0 0 0 0 0 0 0 0 0 0 0 0 0 0 0 0 127 0" result="hardAlpha"/>
<feOffset dy="2"/>
<feGaussianBlur stdDeviation="2.75"/>
<feComposite in2="hardAlpha" operator="out"/>
<feColorMatrix type="matrix" values="0 0 0 0 0 0 0 0 0 0 0 0 0 0 0 0 0 0 1 0"/>
<feBlend mode="normal" in2="BackgroundImageFix" result="effect1_dropShadow_157_376"/>
<feBlend mode="normal" in="SourceGraphic" in2="effect1_dropShadow_157_376" result="shape"/>
</filter>
<filter id="filter12_di_157_376" x="345" y="351" width="66" height="66" filterUnits="userSpaceOnUse" color-interpolation-filters="sRGB">
<feFlood flood-opacity="0" result="BackgroundImageFix"/>
<feColorMatrix in="SourceAlpha" type="matrix" values="0 0 0 0 0 0 0 0 0 0 0 0 0 0 0 0 0 0 127 0" result="hardAlpha"/>
<feOffset dy="4"/>
<feGaussianBlur stdDeviation="2"/>
<feComposite in2="hardAlpha" operator="out"/>
<feColorMatrix type="matrix" values="0 0 0 0 0 0 0 0 0 0 0 0 0 0 0 0 0 0 0.25 0"/>
<feBlend mode="normal" in2="BackgroundImageFix" result="effect1_dropShadow_157_376"/>
<feBlend mode="normal" in="SourceGraphic" in2="effect1_dropShadow_157_376" result="shape"/>
<feColorMatrix in="SourceAlpha" type="matrix" values="0 0 0 0 0 0 0 0 0 0 0 0 0 0 0 0 0 0 127 0" result="hardAlpha"/>
<feMorphology radius="2" operator="erode" in="SourceAlpha" result="effect2_innerShadow_157_376"/>
<feOffset dy="4"/>
<feGaussianBlur stdDeviation="2"/>
<feComposite in2="hardAlpha" operator="arithmetic" k2="-1" k3="1"/>
<feColorMatrix type="matrix" values="0 0 0 0 0 0 0 0 0 0 0 0 0 0 0 0 0 0 0.25 0"/>
<feBlend mode="normal" in2="shape" result="effect2_innerShadow_157_376"/>
</filter>
</defs>
</svg>
