<svg width="311" height="371" viewBox="0 0 311 371" fill="none" xmlns="http://www.w3.org/2000/svg">
<ellipse cx="274.092" cy="254.525" rx="35.6" ry="7.18577" transform="rotate(138.818 274.092 254.525)" fill="#D9D9D9"/>
<line y1="-0.5" x2="80.5287" y2="-0.5" transform="matrix(-0.592554 -0.80553 0.805334 -0.592822 300.622 230.783)" stroke="black"/>
<line y1="-0.5" x2="80.53" y2="-0.5" transform="matrix(0.746618 0.665253 -0.665615 0.746295 186.648 223.792)" stroke="black"/>
<ellipse cx="219.658" cy="194.737" rx="44" ry="12.9743" transform="rotate(138.818 219.658 194.737)" fill="#D9D9D9"/>
<ellipse cx="36.9698" cy="254.13" rx="35.6" ry="7.18577" transform="rotate(-134.257 36.9698 254.13)" fill="#D9D9D9"/>
<line y1="-0.5" x2="80.5287" y2="-0.5" transform="matrix(0.772588 -0.634908 0.635165 0.772377 62.1003 279.349)" stroke="black"/>
<line y1="-0.5" x2="80.53" y2="-0.5" transform="matrix(-0.624249 0.781226 -0.780923 -0.624628 62.968 165.164)" stroke="black"/>
<ellipse cx="93.7521" cy="196.568" rx="44" ry="12.9743" transform="rotate(-134.257 93.7521 196.568)" fill="#D9D9D9"/>
<ellipse cx="154.4" cy="7.18577" rx="35.6" ry="7.18577" fill="#D9D9D9"/>
<line y1="-0.5" x2="80.5287" y2="-0.5" transform="matrix(-0.0844419 0.996428 -0.996456 -0.0841109 118.8 7.58498)" stroke="black"/>
<line y1="-0.5" x2="80.53" y2="-0.5" transform="matrix(-0.123876 -0.992298 0.992358 -0.123394 199.976 87.894)" stroke="black"/>
<ellipse cx="156" cy="88.0257" rx="44" ry="12.9743" fill="#D9D9D9"/>
<ellipse cx="156.5" cy="151.5" rx="22.5" ry="21.5" fill="#BD2BC0"/>
<path d="M18.9668 366C18.6413 366 18.4785 365.821 18.4785 365.463V352.533C18.4785 352.175 18.6413 351.996 18.9668 351.996H19.8652C20.1908 351.996 20.3535 352.175 20.3535 352.533V365.463C20.3535 365.821 20.1908 366 19.8652 366H18.9668ZM23.8398 366C23.5469 366 23.4004 365.854 23.4004 365.561V356.186C23.4004 355.893 23.5469 355.746 23.8398 355.746H24.6602C24.9531 355.746 25.0996 355.893 25.0996 356.186V356.967H25.1387C25.5618 356.498 26.0176 356.15 26.5059 355.922C26.9941 355.694 27.6029 355.58 28.332 355.58C29.5169 355.58 30.3665 355.915 30.8809 356.586C31.4017 357.25 31.6621 358.161 31.6621 359.32V365.561C31.6621 365.854 31.5156 366 31.2227 366H30.3828C30.0898 366 29.9434 365.854 29.9434 365.561V359.789C29.9434 358.513 29.7318 357.706 29.3086 357.367C28.8854 357.022 28.3483 356.85 27.6973 356.85C26.8509 356.85 26.2096 357.104 25.7734 357.611C25.3372 358.113 25.1191 358.975 25.1191 360.199V365.561C25.1191 365.854 24.9727 366 24.6797 366H23.8398ZM34.0156 365.043C33.8138 364.854 33.7715 364.678 33.8887 364.516L34.3281 363.9C34.4714 363.705 34.6829 363.715 34.9629 363.93C35.347 364.223 35.7734 364.457 36.2422 364.633C36.7174 364.809 37.2578 364.896 37.8633 364.896C38.2214 364.896 38.5404 364.854 38.8203 364.77C39.1003 364.678 39.3444 364.512 39.5527 364.271C39.7676 364.031 39.875 363.708 39.875 363.305C39.875 363.07 39.8229 362.849 39.7188 362.641C39.6211 362.432 39.4648 362.266 39.25 362.143C39.0417 362.012 38.8366 361.911 38.6348 361.84C38.3027 361.716 37.9707 361.615 37.6387 361.537C37.3132 361.452 36.8835 361.326 36.3496 361.156C35.9915 361.046 35.653 360.889 35.334 360.688C35.015 360.479 34.735 360.199 34.4941 359.848C34.2598 359.496 34.1426 359.011 34.1426 358.393C34.1426 357.761 34.3346 357.217 34.7188 356.762C35.1029 356.306 35.5846 355.997 36.1641 355.834C36.7435 355.665 37.3066 355.58 37.8535 355.58C38.6608 355.58 39.3086 355.674 39.7969 355.863C40.2917 356.046 40.7181 356.264 41.0762 356.518C41.2845 356.667 41.3138 356.84 41.1641 357.035L40.7246 357.621C40.5879 357.81 40.3763 357.803 40.0898 357.602C39.849 357.432 39.5072 357.273 39.0645 357.123C38.6217 356.973 38.2344 356.898 37.9023 356.898C37.4922 356.898 37.1406 356.944 36.8477 357.035C36.5547 357.126 36.3171 357.283 36.1348 357.504C35.9525 357.725 35.8613 357.986 35.8613 358.285C35.8613 358.513 35.8971 358.718 35.9688 358.9C36.0404 359.076 36.1738 359.239 36.3691 359.389C36.5645 359.538 36.8379 359.659 37.1895 359.75C37.7363 359.893 38.2344 360.023 38.6836 360.141C39.1393 360.258 39.5495 360.401 39.9141 360.57C40.3893 360.792 40.7539 361.036 41.0078 361.303C41.2682 361.57 41.4473 361.859 41.5449 362.172C41.6426 362.478 41.6914 362.82 41.6914 363.197C41.6914 363.894 41.4831 364.483 41.0664 364.965C40.6562 365.447 40.1973 365.769 39.6895 365.932C39.1816 366.088 38.5697 366.166 37.8535 366.166C36.8835 366.166 36.0501 366.029 35.3535 365.756C34.6634 365.476 34.2174 365.238 34.0156 365.043ZM43.0781 360.873C43.0781 359.258 43.4818 357.973 44.2891 357.016C45.0964 356.059 46.252 355.58 47.7559 355.58C49.0059 355.58 50.041 356.02 50.8613 356.898C51.6882 357.771 52.1016 359.167 52.1016 361.088C52.1016 361.381 51.9681 361.527 51.7012 361.527H44.8945C45.0052 362.784 45.3438 363.66 45.9102 364.154C46.4766 364.643 47.1178 364.887 47.834 364.887C48.5892 364.887 49.1686 364.76 49.5723 364.506C49.9759 364.252 50.2721 364.001 50.4609 363.754C50.6693 363.48 50.8711 363.428 51.0664 363.598L51.6426 364.096C51.7923 364.226 51.7923 364.405 51.6426 364.633C51.5189 364.822 51.1641 365.124 50.5781 365.541C49.9987 365.958 49.084 366.166 47.834 366.166C46.2064 366.166 45.0052 365.688 44.2305 364.73C43.4622 363.773 43.0781 362.488 43.0781 360.873ZM44.8555 360.258H50.373C50.347 359.346 50.1126 358.549 49.6699 357.865C49.2272 357.175 48.5762 356.83 47.7168 356.83C46.9616 356.83 46.3203 357.084 45.793 357.592C45.2656 358.093 44.9531 358.982 44.8555 360.258ZM54.7969 366C54.5039 366 54.3574 365.854 54.3574 365.561V356.186C54.3574 355.893 54.5039 355.746 54.7969 355.746H55.6172C55.9102 355.746 56.0566 355.893 56.0566 356.186V357.357H56.0957C56.4082 356.771 56.776 356.329 57.1992 356.029C57.6224 355.73 58.1497 355.58 58.7812 355.58C59.1979 355.58 59.4909 355.616 59.6602 355.688C59.8099 355.746 59.8652 355.844 59.8262 355.98L59.6016 356.781C59.569 356.898 59.4844 356.944 59.3477 356.918C59.1198 356.872 58.9049 356.85 58.7031 356.85C57.9414 356.85 57.3132 357.195 56.8184 357.885C56.3236 358.568 56.0762 359.503 56.0762 360.688V365.561C56.0762 365.854 55.9297 366 55.6367 366H54.7969ZM60.9102 357.035C60.6172 357.035 60.4707 356.921 60.4707 356.693V356.088C60.4707 355.86 60.6172 355.746 60.9102 355.746H62.0625V354.867C62.0625 354.737 62.0951 354.613 62.1602 354.496L62.8438 353.256C62.9674 353.028 63.0684 352.914 63.1465 352.914H63.4883C63.6836 352.914 63.7812 353.028 63.7812 353.256V355.746H65.8613C66.1543 355.746 66.3008 355.86 66.3008 356.088V356.693C66.3008 356.921 66.1543 357.035 65.8613 357.035H63.7812V363.256C63.7812 363.939 63.8822 364.385 64.084 364.594C64.2923 364.796 64.5397 364.896 64.8262 364.896C65.0475 364.896 65.3112 364.831 65.6172 364.701C65.9297 364.571 66.1445 364.46 66.2617 364.369C66.3789 364.278 66.4701 364.307 66.5352 364.457L66.8574 365.209C66.9095 365.339 66.8704 365.443 66.7402 365.521C66.4863 365.671 66.1152 365.818 65.627 365.961C65.1387 366.098 64.6504 366.166 64.1621 366.166C63.485 366.166 62.9642 365.922 62.5996 365.434C62.2415 364.945 62.0625 364.255 62.0625 363.363V357.035H60.9102ZM74.7578 356.225C74.6406 355.906 74.7285 355.746 75.0215 355.746H76.0859C76.3008 355.746 76.4473 355.873 76.5254 356.127L78.5762 362.572C78.6348 362.748 78.7227 363.025 78.8398 363.402C78.9635 363.773 79.0514 364.105 79.1035 364.398H79.123C79.1751 364.105 79.237 363.842 79.3086 363.607C79.3867 363.367 79.5007 363.021 79.6504 362.572L81.7207 356.127C81.8053 355.873 81.9518 355.746 82.1602 355.746H83.2246C83.5176 355.746 83.6055 355.906 83.4883 356.225L80.1973 365.404C79.5788 367.13 79.0254 368.337 78.5371 369.027C78.0488 369.724 77.3197 370.072 76.3496 370.072C75.8418 370.072 75.4382 369.997 75.1387 369.848C75.002 369.783 74.9564 369.682 75.002 369.545L75.2559 368.754C75.3014 368.617 75.3893 368.578 75.5195 368.637C75.7865 368.747 76.0436 368.803 76.291 368.803C76.7467 368.803 77.1178 368.555 77.4043 368.061C77.6908 367.572 77.9186 367.081 78.0879 366.586L78.2832 366.01L74.7578 356.225ZM84.582 360.873C84.582 359.343 84.9857 358.08 85.793 357.084C86.6068 356.081 87.7949 355.58 89.3574 355.58C90.9199 355.58 92.1048 356.081 92.9121 357.084C93.7259 358.08 94.1328 359.343 94.1328 360.873C94.1328 362.403 93.7259 363.669 92.9121 364.672C92.1048 365.668 90.9199 366.166 89.3574 366.166C87.7949 366.166 86.6068 365.668 85.793 364.672C84.9857 363.669 84.582 362.403 84.582 360.873ZM86.3984 360.873C86.3984 362.24 86.6686 363.253 87.209 363.91C87.7493 364.568 88.4655 364.896 89.3574 364.896C90.2493 364.896 90.9655 364.568 91.5059 363.91C92.0462 363.253 92.3164 362.24 92.3164 360.873C92.3164 359.506 92.0462 358.493 91.5059 357.836C90.9655 357.178 90.2493 356.85 89.3574 356.85C88.4655 356.85 87.7493 357.178 87.209 357.836C86.6686 358.493 86.3984 359.506 86.3984 360.873ZM96.3301 362.426V356.186C96.3301 355.893 96.4766 355.746 96.7695 355.746H97.6094C97.9023 355.746 98.0488 355.893 98.0488 356.186V361.957C98.0488 363.233 98.2604 364.044 98.6836 364.389C99.1068 364.727 99.6309 364.896 100.256 364.896C101.076 364.896 101.704 364.646 102.141 364.145C102.577 363.637 102.795 362.771 102.795 361.547V356.186C102.795 355.893 102.941 355.746 103.234 355.746H104.074C104.367 355.746 104.514 355.893 104.514 356.186V365.561C104.514 365.854 104.367 366 104.074 366H103.254C102.961 366 102.814 365.854 102.814 365.561V364.779H102.775C102.352 365.248 101.896 365.596 101.408 365.824C100.92 366.052 100.324 366.166 99.6211 366.166C98.4818 366.166 97.6484 365.834 97.1211 365.17C96.5938 364.499 96.3301 363.585 96.3301 362.426ZM107.727 366C107.434 366 107.287 365.854 107.287 365.561V356.186C107.287 355.893 107.434 355.746 107.727 355.746H108.547C108.84 355.746 108.986 355.893 108.986 356.186V357.357H109.025C109.338 356.771 109.706 356.329 110.129 356.029C110.552 355.73 111.079 355.58 111.711 355.58C112.128 355.58 112.421 355.616 112.59 355.688C112.74 355.746 112.795 355.844 112.756 355.98L112.531 356.781C112.499 356.898 112.414 356.944 112.277 356.918C112.049 356.872 111.835 356.85 111.633 356.85C110.871 356.85 110.243 357.195 109.748 357.885C109.253 358.568 109.006 359.503 109.006 360.688V365.561C109.006 365.854 108.859 366 108.566 366H107.727ZM121.438 366C121.145 366 120.998 365.854 120.998 365.561V356.186C120.998 355.893 121.145 355.746 121.438 355.746H122.258C122.551 355.746 122.697 355.893 122.697 356.186V356.967H122.736C123.16 356.498 123.615 356.15 124.104 355.922C124.592 355.694 125.201 355.58 125.93 355.58C127.115 355.58 127.964 355.915 128.479 356.586C128.999 357.25 129.26 358.161 129.26 359.32V365.561C129.26 365.854 129.113 366 128.82 366H127.98C127.688 366 127.541 365.854 127.541 365.561V359.789C127.541 358.513 127.329 357.706 126.906 357.367C126.483 357.022 125.946 356.85 125.295 356.85C124.449 356.85 123.807 357.104 123.371 357.611C122.935 358.113 122.717 358.975 122.717 360.199V365.561C122.717 365.854 122.57 366 122.277 366H121.438ZM131.457 363.266C131.457 362.107 131.997 361.257 133.078 360.717C134.165 360.176 135.786 359.861 137.941 359.77V359.105C137.941 358.493 137.801 357.966 137.521 357.523C137.248 357.074 136.701 356.85 135.881 356.85C135.36 356.85 134.943 356.902 134.631 357.006C134.318 357.104 134.032 357.237 133.771 357.406C133.518 357.569 133.273 357.781 133.039 358.041C132.863 358.236 132.697 358.246 132.541 358.07L132.033 357.484C131.89 357.322 131.939 357.126 132.18 356.898C132.525 356.573 132.86 356.329 133.186 356.166C133.511 356.003 133.915 355.867 134.396 355.756C134.885 355.639 135.38 355.58 135.881 355.58C137.242 355.58 138.212 355.932 138.791 356.635C139.37 357.331 139.66 358.288 139.66 359.506V365.561C139.66 365.854 139.514 366 139.221 366H138.342C138.088 366 137.961 365.854 137.961 365.561V365.082H137.941C137.427 365.486 136.923 365.769 136.428 365.932C135.939 366.088 135.393 366.166 134.787 366.166C133.719 366.166 132.896 365.912 132.316 365.404C131.743 364.89 131.457 364.177 131.457 363.266ZM133.234 363.305C133.234 363.708 133.319 364.034 133.488 364.281C133.658 364.522 133.892 364.678 134.191 364.75C134.491 364.815 134.803 364.848 135.129 364.848C135.63 364.848 136.105 364.799 136.555 364.701C137.004 364.604 137.466 364.346 137.941 363.93V361.049C136.626 361.146 135.689 361.267 135.129 361.41C134.569 361.547 134.113 361.788 133.762 362.133C133.41 362.471 133.234 362.862 133.234 363.305ZM142.883 366C142.59 366 142.443 365.854 142.443 365.561V356.186C142.443 355.893 142.59 355.746 142.883 355.746H143.703C143.996 355.746 144.143 355.893 144.143 356.186V356.967H144.182C144.605 356.498 145.064 356.15 145.559 355.922C146.053 355.694 146.529 355.58 146.984 355.58C147.824 355.58 148.469 355.792 148.918 356.215C149.374 356.632 149.667 357.051 149.797 357.475H149.836C150.194 356.941 150.646 356.492 151.193 356.127C151.74 355.762 152.323 355.58 152.941 355.58C153.977 355.58 154.758 355.915 155.285 356.586C155.812 357.25 156.076 358.161 156.076 359.32V365.561C156.076 365.854 155.93 366 155.637 366H154.797C154.504 366 154.357 365.854 154.357 365.561V359.887C154.357 358.611 154.198 357.787 153.879 357.416C153.56 357.038 153.068 356.85 152.404 356.85C151.753 356.85 151.21 357.13 150.773 357.689C150.337 358.243 150.119 359.079 150.119 360.199V365.561C150.119 365.854 149.973 366 149.68 366H148.84C148.547 366 148.4 365.854 148.4 365.561V359.887C148.4 358.611 148.241 357.787 147.922 357.416C147.603 357.038 147.111 356.85 146.447 356.85C145.796 356.85 145.253 357.104 144.816 357.611C144.38 358.113 144.162 358.975 144.162 360.199V365.561C144.162 365.854 144.016 366 143.723 366H142.883ZM158.273 360.873C158.273 359.258 158.677 357.973 159.484 357.016C160.292 356.059 161.447 355.58 162.951 355.58C164.201 355.58 165.236 356.02 166.057 356.898C166.883 357.771 167.297 359.167 167.297 361.088C167.297 361.381 167.163 361.527 166.896 361.527H160.09C160.201 362.784 160.539 363.66 161.105 364.154C161.672 364.643 162.313 364.887 163.029 364.887C163.785 364.887 164.364 364.76 164.768 364.506C165.171 364.252 165.467 364.001 165.656 363.754C165.865 363.48 166.066 363.428 166.262 363.598L166.838 364.096C166.988 364.226 166.988 364.405 166.838 364.633C166.714 364.822 166.359 365.124 165.773 365.541C165.194 365.958 164.279 366.166 163.029 366.166C161.402 366.166 160.201 365.688 159.426 364.73C158.658 363.773 158.273 362.488 158.273 360.873ZM160.051 360.258H165.568C165.542 359.346 165.308 358.549 164.865 357.865C164.423 357.175 163.771 356.83 162.912 356.83C162.157 356.83 161.516 357.084 160.988 357.592C160.461 358.093 160.148 358.982 160.051 360.258ZM175.656 363.266C175.656 362.107 176.197 361.257 177.277 360.717C178.365 360.176 179.986 359.861 182.141 359.77V359.105C182.141 358.493 182.001 357.966 181.721 357.523C181.447 357.074 180.9 356.85 180.08 356.85C179.559 356.85 179.143 356.902 178.83 357.006C178.518 357.104 178.231 357.237 177.971 357.406C177.717 357.569 177.473 357.781 177.238 358.041C177.062 358.236 176.896 358.246 176.74 358.07L176.232 357.484C176.089 357.322 176.138 357.126 176.379 356.898C176.724 356.573 177.059 356.329 177.385 356.166C177.71 356.003 178.114 355.867 178.596 355.756C179.084 355.639 179.579 355.58 180.08 355.58C181.441 355.58 182.411 355.932 182.99 356.635C183.57 357.331 183.859 358.288 183.859 359.506V365.561C183.859 365.854 183.713 366 183.42 366H182.541C182.287 366 182.16 365.854 182.16 365.561V365.082H182.141C181.626 365.486 181.122 365.769 180.627 365.932C180.139 366.088 179.592 366.166 178.986 366.166C177.919 366.166 177.095 365.912 176.516 365.404C175.943 364.89 175.656 364.177 175.656 363.266ZM177.434 363.305C177.434 363.708 177.518 364.034 177.688 364.281C177.857 364.522 178.091 364.678 178.391 364.75C178.69 364.815 179.003 364.848 179.328 364.848C179.829 364.848 180.305 364.799 180.754 364.701C181.203 364.604 181.665 364.346 182.141 363.93V361.049C180.826 361.146 179.888 361.267 179.328 361.41C178.768 361.547 178.312 361.788 177.961 362.133C177.609 362.471 177.434 362.862 177.434 363.305ZM187.082 366C186.789 366 186.643 365.854 186.643 365.561V356.186C186.643 355.893 186.789 355.746 187.082 355.746H187.902C188.195 355.746 188.342 355.893 188.342 356.186V356.967H188.381C188.804 356.498 189.26 356.15 189.748 355.922C190.236 355.694 190.845 355.58 191.574 355.58C192.759 355.58 193.609 355.915 194.123 356.586C194.644 357.25 194.904 358.161 194.904 359.32V365.561C194.904 365.854 194.758 366 194.465 366H193.625C193.332 366 193.186 365.854 193.186 365.561V359.789C193.186 358.513 192.974 357.706 192.551 357.367C192.128 357.022 191.59 356.85 190.939 356.85C190.093 356.85 189.452 357.104 189.016 357.611C188.579 358.113 188.361 358.975 188.361 360.199V365.561C188.361 365.854 188.215 366 187.922 366H187.082ZM197.102 360.873C197.102 359.473 197.44 358.243 198.117 357.182C198.794 356.114 199.784 355.58 201.086 355.58C201.835 355.58 202.434 355.704 202.883 355.951C203.332 356.199 203.736 356.537 204.094 356.967H204.113C204.1 356.771 204.094 356.573 204.094 356.371V352.025C204.094 351.732 204.24 351.586 204.533 351.586H205.373C205.666 351.586 205.812 351.732 205.812 352.025V365.561C205.812 365.854 205.666 366 205.373 366H204.553C204.318 366 204.191 365.854 204.172 365.561L204.113 364.779H204.094C203.736 365.209 203.332 365.548 202.883 365.795C202.434 366.042 201.835 366.166 201.086 366.166C199.784 366.166 198.794 365.635 198.117 364.574C197.44 363.507 197.102 362.273 197.102 360.873ZM198.918 360.873C198.918 362.071 199.123 363.041 199.533 363.783C199.95 364.525 200.653 364.896 201.643 364.896C202.346 364.896 202.928 364.659 203.391 364.184C203.859 363.702 204.094 362.973 204.094 361.996V359.75C204.094 358.773 203.859 358.048 203.391 357.572C202.928 357.09 202.346 356.85 201.643 356.85C200.653 356.85 199.95 357.221 199.533 357.963C199.123 358.705 198.918 359.675 198.918 360.873ZM215.695 369.906C215.402 369.906 215.256 369.76 215.256 369.467V356.186C215.256 355.893 215.402 355.746 215.695 355.746H216.516C216.75 355.746 216.877 355.893 216.896 356.186L216.955 356.967H216.975C217.333 356.537 217.736 356.199 218.186 355.951C218.635 355.704 219.234 355.58 219.982 355.58C221.285 355.58 222.274 356.114 222.951 357.182C223.628 358.243 223.967 359.473 223.967 360.873C223.967 362.273 223.628 363.507 222.951 364.574C222.274 365.635 221.285 366.166 219.982 366.166C219.234 366.166 218.635 366.042 218.186 365.795C217.736 365.548 217.333 365.209 216.975 364.779H216.955C216.968 364.975 216.975 365.173 216.975 365.375V369.467C216.975 369.76 216.828 369.906 216.535 369.906H215.695ZM216.975 361.996C216.975 362.973 217.206 363.702 217.668 364.184C218.137 364.659 218.723 364.896 219.426 364.896C220.415 364.896 221.115 364.525 221.525 363.783C221.942 363.041 222.15 362.071 222.15 360.873C222.15 359.675 221.942 358.705 221.525 357.963C221.115 357.221 220.415 356.85 219.426 356.85C218.723 356.85 218.137 357.09 217.668 357.572C217.206 358.048 216.975 358.773 216.975 359.75V361.996ZM226.633 366C226.34 366 226.193 365.854 226.193 365.561V356.186C226.193 355.893 226.34 355.746 226.633 355.746H227.453C227.746 355.746 227.893 355.893 227.893 356.186V357.357H227.932C228.244 356.771 228.612 356.329 229.035 356.029C229.458 355.73 229.986 355.58 230.617 355.58C231.034 355.58 231.327 355.616 231.496 355.688C231.646 355.746 231.701 355.844 231.662 355.98L231.438 356.781C231.405 356.898 231.32 356.944 231.184 356.918C230.956 356.872 230.741 356.85 230.539 356.85C229.777 356.85 229.149 357.195 228.654 357.885C228.16 358.568 227.912 359.503 227.912 360.688V365.561C227.912 365.854 227.766 366 227.473 366H226.633ZM232.688 360.873C232.688 359.258 233.091 357.973 233.898 357.016C234.706 356.059 235.861 355.58 237.365 355.58C238.615 355.58 239.65 356.02 240.471 356.898C241.298 357.771 241.711 359.167 241.711 361.088C241.711 361.381 241.577 361.527 241.311 361.527H234.504C234.615 362.784 234.953 363.66 235.52 364.154C236.086 364.643 236.727 364.887 237.443 364.887C238.199 364.887 238.778 364.76 239.182 364.506C239.585 364.252 239.882 364.001 240.07 363.754C240.279 363.48 240.48 363.428 240.676 363.598L241.252 364.096C241.402 364.226 241.402 364.405 241.252 364.633C241.128 364.822 240.773 365.124 240.188 365.541C239.608 365.958 238.693 366.166 237.443 366.166C235.816 366.166 234.615 365.688 233.84 364.73C233.072 363.773 232.688 362.488 232.688 360.873ZM234.465 360.258H239.982C239.956 359.346 239.722 358.549 239.279 357.865C238.837 357.175 238.186 356.83 237.326 356.83C236.571 356.83 235.93 357.084 235.402 357.592C234.875 358.093 234.562 358.982 234.465 360.258ZM243.566 365.043C243.365 364.854 243.322 364.678 243.439 364.516L243.879 363.9C244.022 363.705 244.234 363.715 244.514 363.93C244.898 364.223 245.324 364.457 245.793 364.633C246.268 364.809 246.809 364.896 247.414 364.896C247.772 364.896 248.091 364.854 248.371 364.77C248.651 364.678 248.895 364.512 249.104 364.271C249.318 364.031 249.426 363.708 249.426 363.305C249.426 363.07 249.374 362.849 249.27 362.641C249.172 362.432 249.016 362.266 248.801 362.143C248.592 362.012 248.387 361.911 248.186 361.84C247.854 361.716 247.521 361.615 247.189 361.537C246.864 361.452 246.434 361.326 245.9 361.156C245.542 361.046 245.204 360.889 244.885 360.688C244.566 360.479 244.286 360.199 244.045 359.848C243.811 359.496 243.693 359.011 243.693 358.393C243.693 357.761 243.885 357.217 244.27 356.762C244.654 356.306 245.135 355.997 245.715 355.834C246.294 355.665 246.857 355.58 247.404 355.58C248.212 355.58 248.859 355.674 249.348 355.863C249.842 356.046 250.269 356.264 250.627 356.518C250.835 356.667 250.865 356.84 250.715 357.035L250.275 357.621C250.139 357.81 249.927 357.803 249.641 357.602C249.4 357.432 249.058 357.273 248.615 357.123C248.173 356.973 247.785 356.898 247.453 356.898C247.043 356.898 246.691 356.944 246.398 357.035C246.105 357.126 245.868 357.283 245.686 357.504C245.503 357.725 245.412 357.986 245.412 358.285C245.412 358.513 245.448 358.718 245.52 358.9C245.591 359.076 245.725 359.239 245.92 359.389C246.115 359.538 246.389 359.659 246.74 359.75C247.287 359.893 247.785 360.023 248.234 360.141C248.69 360.258 249.1 360.401 249.465 360.57C249.94 360.792 250.305 361.036 250.559 361.303C250.819 361.57 250.998 361.859 251.096 362.172C251.193 362.478 251.242 362.82 251.242 363.197C251.242 363.894 251.034 364.483 250.617 364.965C250.207 365.447 249.748 365.769 249.24 365.932C248.732 366.088 248.12 366.166 247.404 366.166C246.434 366.166 245.601 366.029 244.904 365.756C244.214 365.476 243.768 365.238 243.566 365.043ZM252.785 365.043C252.583 364.854 252.541 364.678 252.658 364.516L253.098 363.9C253.241 363.705 253.452 363.715 253.732 363.93C254.117 364.223 254.543 364.457 255.012 364.633C255.487 364.809 256.027 364.896 256.633 364.896C256.991 364.896 257.31 364.854 257.59 364.77C257.87 364.678 258.114 364.512 258.322 364.271C258.537 364.031 258.645 363.708 258.645 363.305C258.645 363.07 258.592 362.849 258.488 362.641C258.391 362.432 258.234 362.266 258.02 362.143C257.811 362.012 257.606 361.911 257.404 361.84C257.072 361.716 256.74 361.615 256.408 361.537C256.083 361.452 255.653 361.326 255.119 361.156C254.761 361.046 254.423 360.889 254.104 360.688C253.785 360.479 253.505 360.199 253.264 359.848C253.029 359.496 252.912 359.011 252.912 358.393C252.912 357.761 253.104 357.217 253.488 356.762C253.872 356.306 254.354 355.997 254.934 355.834C255.513 355.665 256.076 355.58 256.623 355.58C257.43 355.58 258.078 355.674 258.566 355.863C259.061 356.046 259.488 356.264 259.846 356.518C260.054 356.667 260.083 356.84 259.934 357.035L259.494 357.621C259.357 357.81 259.146 357.803 258.859 357.602C258.618 357.432 258.277 357.273 257.834 357.123C257.391 356.973 257.004 356.898 256.672 356.898C256.262 356.898 255.91 356.944 255.617 357.035C255.324 357.126 255.087 357.283 254.904 357.504C254.722 357.725 254.631 357.986 254.631 358.285C254.631 358.513 254.667 358.718 254.738 358.9C254.81 359.076 254.943 359.239 255.139 359.389C255.334 359.538 255.607 359.659 255.959 359.75C256.506 359.893 257.004 360.023 257.453 360.141C257.909 360.258 258.319 360.401 258.684 360.57C259.159 360.792 259.523 361.036 259.777 361.303C260.038 361.57 260.217 361.859 260.314 362.172C260.412 362.478 260.461 362.82 260.461 363.197C260.461 363.894 260.253 364.483 259.836 364.965C259.426 365.447 258.967 365.769 258.459 365.932C257.951 366.088 257.339 366.166 256.623 366.166C255.653 366.166 254.82 366.029 254.123 365.756C253.433 365.476 252.987 365.238 252.785 365.043ZM268.664 365.043C268.462 364.854 268.42 364.678 268.537 364.516L268.977 363.9C269.12 363.705 269.331 363.715 269.611 363.93C269.995 364.223 270.422 364.457 270.891 364.633C271.366 364.809 271.906 364.896 272.512 364.896C272.87 364.896 273.189 364.854 273.469 364.77C273.749 364.678 273.993 364.512 274.201 364.271C274.416 364.031 274.523 363.708 274.523 363.305C274.523 363.07 274.471 362.849 274.367 362.641C274.27 362.432 274.113 362.266 273.898 362.143C273.69 362.012 273.485 361.911 273.283 361.84C272.951 361.716 272.619 361.615 272.287 361.537C271.962 361.452 271.532 361.326 270.998 361.156C270.64 361.046 270.301 360.889 269.982 360.688C269.663 360.479 269.383 360.199 269.143 359.848C268.908 359.496 268.791 359.011 268.791 358.393C268.791 357.761 268.983 357.217 269.367 356.762C269.751 356.306 270.233 355.997 270.812 355.834C271.392 355.665 271.955 355.58 272.502 355.58C273.309 355.58 273.957 355.674 274.445 355.863C274.94 356.046 275.367 356.264 275.725 356.518C275.933 356.667 275.962 356.84 275.812 357.035L275.373 357.621C275.236 357.81 275.025 357.803 274.738 357.602C274.497 357.432 274.156 357.273 273.713 357.123C273.27 356.973 272.883 356.898 272.551 356.898C272.141 356.898 271.789 356.944 271.496 357.035C271.203 357.126 270.965 357.283 270.783 357.504C270.601 357.725 270.51 357.986 270.51 358.285C270.51 358.513 270.546 358.718 270.617 358.9C270.689 359.076 270.822 359.239 271.018 359.389C271.213 359.538 271.486 359.659 271.838 359.75C272.385 359.893 272.883 360.023 273.332 360.141C273.788 360.258 274.198 360.401 274.562 360.57C275.038 360.792 275.402 361.036 275.656 361.303C275.917 361.57 276.096 361.859 276.193 362.172C276.291 362.478 276.34 362.82 276.34 363.197C276.34 363.894 276.132 364.483 275.715 364.965C275.305 365.447 274.846 365.769 274.338 365.932C273.83 366.088 273.218 366.166 272.502 366.166C271.532 366.166 270.699 366.029 270.002 365.756C269.312 365.476 268.866 365.238 268.664 365.043ZM277.785 357.035C277.492 357.035 277.346 356.921 277.346 356.693V356.088C277.346 355.86 277.492 355.746 277.785 355.746H278.938V354.867C278.938 354.737 278.97 354.613 279.035 354.496L279.719 353.256C279.842 353.028 279.943 352.914 280.021 352.914H280.363C280.559 352.914 280.656 353.028 280.656 353.256V355.746H282.736C283.029 355.746 283.176 355.86 283.176 356.088V356.693C283.176 356.921 283.029 357.035 282.736 357.035H280.656V363.256C280.656 363.939 280.757 364.385 280.959 364.594C281.167 364.796 281.415 364.896 281.701 364.896C281.923 364.896 282.186 364.831 282.492 364.701C282.805 364.571 283.02 364.46 283.137 364.369C283.254 364.278 283.345 364.307 283.41 364.457L283.732 365.209C283.785 365.339 283.745 365.443 283.615 365.521C283.361 365.671 282.99 365.818 282.502 365.961C282.014 366.098 281.525 366.166 281.037 366.166C280.36 366.166 279.839 365.922 279.475 365.434C279.117 364.945 278.938 364.255 278.938 363.363V357.035H277.785ZM285.129 363.266C285.129 362.107 285.669 361.257 286.75 360.717C287.837 360.176 289.458 359.861 291.613 359.77V359.105C291.613 358.493 291.473 357.966 291.193 357.523C290.92 357.074 290.373 356.85 289.553 356.85C289.032 356.85 288.615 356.902 288.303 357.006C287.99 357.104 287.704 357.237 287.443 357.406C287.189 357.569 286.945 357.781 286.711 358.041C286.535 358.236 286.369 358.246 286.213 358.07L285.705 357.484C285.562 357.322 285.611 357.126 285.852 356.898C286.197 356.573 286.532 356.329 286.857 356.166C287.183 356.003 287.587 355.867 288.068 355.756C288.557 355.639 289.051 355.58 289.553 355.58C290.913 355.58 291.883 355.932 292.463 356.635C293.042 357.331 293.332 358.288 293.332 359.506V365.561C293.332 365.854 293.186 366 292.893 366H292.014C291.76 366 291.633 365.854 291.633 365.561V365.082H291.613C291.099 365.486 290.594 365.769 290.1 365.932C289.611 366.088 289.064 366.166 288.459 366.166C287.391 366.166 286.568 365.912 285.988 365.404C285.415 364.89 285.129 364.177 285.129 363.266ZM286.906 363.305C286.906 363.708 286.991 364.034 287.16 364.281C287.329 364.522 287.564 364.678 287.863 364.75C288.163 364.815 288.475 364.848 288.801 364.848C289.302 364.848 289.777 364.799 290.227 364.701C290.676 364.604 291.138 364.346 291.613 363.93V361.049C290.298 361.146 289.361 361.267 288.801 361.41C288.241 361.547 287.785 361.788 287.434 362.133C287.082 362.471 286.906 362.862 286.906 363.305ZM296.555 366C296.262 366 296.115 365.854 296.115 365.561V356.186C296.115 355.893 296.262 355.746 296.555 355.746H297.375C297.668 355.746 297.814 355.893 297.814 356.186V357.357H297.854C298.166 356.771 298.534 356.329 298.957 356.029C299.38 355.73 299.908 355.58 300.539 355.58C300.956 355.58 301.249 355.616 301.418 355.688C301.568 355.746 301.623 355.844 301.584 355.98L301.359 356.781C301.327 356.898 301.242 356.944 301.105 356.918C300.878 356.872 300.663 356.85 300.461 356.85C299.699 356.85 299.071 357.195 298.576 357.885C298.081 358.568 297.834 359.503 297.834 360.688V365.561C297.834 365.854 297.688 366 297.395 366H296.555ZM302.668 357.035C302.375 357.035 302.229 356.921 302.229 356.693V356.088C302.229 355.86 302.375 355.746 302.668 355.746H303.82V354.867C303.82 354.737 303.853 354.613 303.918 354.496L304.602 353.256C304.725 353.028 304.826 352.914 304.904 352.914H305.246C305.441 352.914 305.539 353.028 305.539 353.256V355.746H307.619C307.912 355.746 308.059 355.86 308.059 356.088V356.693C308.059 356.921 307.912 357.035 307.619 357.035H305.539V363.256C305.539 363.939 305.64 364.385 305.842 364.594C306.05 364.796 306.298 364.896 306.584 364.896C306.805 364.896 307.069 364.831 307.375 364.701C307.688 364.571 307.902 364.46 308.02 364.369C308.137 364.278 308.228 364.307 308.293 364.457L308.615 365.209C308.667 365.339 308.628 365.443 308.498 365.521C308.244 365.671 307.873 365.818 307.385 365.961C306.896 366.098 306.408 366.166 305.92 366.166C305.243 366.166 304.722 365.922 304.357 365.434C303.999 364.945 303.82 364.255 303.82 363.363V357.035H302.668Z" fill="black"/>
</svg>
